<svg width="135" height="178" viewBox="0 0 135 178" fill="none" xmlns="http://www.w3.org/2000/svg">
<path d="M35.3403 3.29991C41.685 5.60451 49.5931 8.90646 58.1309 13.0623M35.3403 3.29991C34.6284 26.6897 45.3929 39.6524 60.0301 48.0513M35.3403 3.29991C68.8193 0.376042 91.4109 5.72557 106.284 15.1041M130.301 79.1841C123.654 69.3481 107.531 65.1218 90.4176 59.9612M130.301 79.1841C126.728 64.9069 115.646 51.7179 101.813 40.3482M130.301 79.1841C133.097 67.6757 133.28 51.8735 126.503 37.6032M58.1309 13.0623C56.8648 21.6551 55.472 40.6827 60.0301 48.0513M58.1309 13.0623C63.0461 15.4548 68.1701 18.1303 73.3246 21.0615M60.0301 48.0513C69.2555 53.3448 80.0193 56.8255 90.4176 59.9612M73.3246 21.0615C80.1038 17.9515 96.1866 12.406 106.284 15.1041M73.3246 21.0615C77.4594 23.4127 81.6139 25.9285 85.696 28.5946M106.284 15.1041C116.056 21.2659 122.496 29.1668 126.503 37.6032M85.696 28.5946C85.3707 36.0151 85.8594 52.6772 90.4176 59.9612M85.696 28.5946C91.2822 32.243 96.733 36.1729 101.813 40.3482M101.813 40.3482C106.877 38.5013 118.906 35.3667 126.503 37.6032M113.208 163.5C134.099 141.578 155.75 93.0118 75.2233 74.1251C16.3476 58.9483 22.0453 37.0262 20.1461 16.7904C-2.64452 37.0262 -14.0398 90.9882 54.3319 104.479C109.029 115.271 116.373 148.323 113.208 163.5Z" stroke="white" stroke-width="5"/>
<path d="M99.4676 174.707C93.1109 172.423 85.1878 169.15 76.6338 165.031M99.4676 174.707C100.181 151.526 89.3959 138.679 74.731 130.355M99.4676 174.707C65.9252 177.605 43.2908 172.303 28.3896 163.008M4.32708 99.4998C10.9865 109.248 27.1404 113.437 44.2861 118.551M4.32708 99.4998C7.90711 113.65 19.0101 126.721 32.8692 137.989M4.32708 99.4998C1.52621 110.905 1.34212 126.567 8.1327 140.71M76.6338 165.031C77.9024 156.515 79.2978 137.658 74.731 130.355M76.6338 165.031C71.7093 162.66 66.5757 160.009 61.4114 157.104M74.731 130.355C65.4882 125.108 54.7041 121.659 44.2861 118.551M61.4114 157.104C54.6193 160.186 38.5062 165.682 28.3896 163.008M61.4114 157.104C57.2688 154.773 53.1064 152.28 49.0165 149.638M28.3896 163.008C18.5994 156.901 12.1472 149.071 8.1327 140.71M49.0165 149.638C49.3425 142.283 48.8528 125.77 44.2861 118.551M49.0165 149.638C43.4198 146.022 37.9587 142.127 32.8692 137.989M32.8692 137.989C27.7951 139.819 15.7439 142.926 8.1327 140.71" stroke="white" stroke-width="5"/>
</svg>
