<svg width="670" height="178" viewBox="0 0 670 178" fill="none" xmlns="http://www.w3.org/2000/svg">
<path d="M35.3403 3.29991C41.685 5.60451 49.5931 8.90646 58.1309 13.0623M35.3403 3.29991C34.6284 26.6897 45.3929 39.6524 60.0301 48.0513M35.3403 3.29991C68.8193 0.376042 91.4109 5.72557 106.284 15.1041M130.301 79.1841C123.654 69.3481 107.531 65.1218 90.4176 59.9612M130.301 79.1841C126.728 64.9069 115.646 51.7179 101.813 40.3482M130.301 79.1841C133.097 67.6757 133.28 51.8735 126.503 37.6032M58.1309 13.0623C56.8648 21.6551 55.472 40.6827 60.0301 48.0513M58.1309 13.0623C63.0461 15.4548 68.1701 18.1303 73.3246 21.0615M60.0301 48.0513C69.2555 53.3448 80.0193 56.8255 90.4176 59.9612M73.3246 21.0615C80.1038 17.9515 96.1866 12.406 106.284 15.1041M73.3246 21.0615C77.4594 23.4127 81.6139 25.9285 85.696 28.5946M106.284 15.1041C116.056 21.2659 122.496 29.1668 126.503 37.6032M85.696 28.5946C85.3707 36.0151 85.8594 52.6772 90.4176 59.9612M85.696 28.5946C91.2822 32.243 96.733 36.1729 101.813 40.3482M101.813 40.3482C106.877 38.5013 118.906 35.3667 126.503 37.6032M113.208 163.5C134.099 141.578 155.75 93.0118 75.2233 74.1251C16.3476 58.9483 22.0453 37.0262 20.1461 16.7904C-2.64452 37.0262 -14.0398 90.9882 54.3319 104.479C109.029 115.271 116.373 148.323 113.208 163.5Z" stroke="white" stroke-width="5"/>
<path d="M99.4676 174.707C93.1109 172.423 85.1878 169.15 76.6338 165.031M99.4676 174.707C100.181 151.526 89.3959 138.679 74.731 130.355M99.4676 174.707C65.9252 177.605 43.2908 172.303 28.3896 163.008M4.32708 99.4998C10.9865 109.248 27.1404 113.437 44.2861 118.551M4.32708 99.4998C7.90711 113.65 19.0101 126.721 32.8692 137.989M4.32708 99.4998C1.52621 110.905 1.34212 126.567 8.1327 140.71M76.6338 165.031C77.9024 156.515 79.2978 137.658 74.731 130.355M76.6338 165.031C71.7093 162.66 66.5757 160.009 61.4114 157.104M74.731 130.355C65.4882 125.108 54.7041 121.659 44.2861 118.551M61.4114 157.104C54.6193 160.186 38.5062 165.682 28.3896 163.008M61.4114 157.104C57.2688 154.773 53.1064 152.28 49.0165 149.638M28.3896 163.008C18.5994 156.901 12.1472 149.071 8.1327 140.71M49.0165 149.638C49.3425 142.283 48.8528 125.77 44.2861 118.551M49.0165 149.638C43.4198 146.022 37.9587 142.127 32.8692 137.989M32.8692 137.989C27.7951 139.819 15.7439 142.926 8.1327 140.71" stroke="white" stroke-width="5"/>
<path d="M174.501 30.4998V156.348" stroke="white" stroke-width="2"/>
<path d="M264.274 77.9998C263.849 74.0301 262.062 70.9392 258.91 68.727C255.789 66.5149 251.728 65.4088 246.728 65.4088C243.213 65.4088 240.198 65.9391 237.683 66.9998C235.168 68.0604 233.243 69.4998 231.91 71.3179C230.577 73.1361 229.895 75.2119 229.865 77.5452C229.865 79.4846 230.304 81.1664 231.183 82.5907C232.092 84.0149 233.319 85.227 234.865 86.227C236.41 87.1967 238.122 88.0149 240.001 88.6816C241.88 89.3482 243.774 89.9088 245.683 90.3634L254.41 92.5452C257.925 93.3634 261.304 94.4695 264.546 95.8634C267.819 97.2573 270.743 99.0149 273.319 101.136C275.925 103.257 277.986 105.818 279.501 108.818C281.016 111.818 281.774 115.333 281.774 119.363C281.774 124.818 280.38 129.621 277.592 133.772C274.804 137.894 270.774 141.121 265.501 143.454C260.259 145.757 253.91 146.909 246.456 146.909C239.213 146.909 232.925 145.788 227.592 143.545C222.289 141.303 218.137 138.03 215.137 133.727C212.168 129.424 210.562 124.182 210.319 118H226.91C227.152 121.242 228.152 123.939 229.91 126.091C231.668 128.242 233.956 129.848 236.774 130.909C239.622 131.969 242.804 132.5 246.319 132.5C249.986 132.5 253.198 131.954 255.956 130.863C258.743 129.742 260.925 128.197 262.501 126.227C264.077 124.227 264.88 121.894 264.91 119.227C264.88 116.803 264.168 114.803 262.774 113.227C261.38 111.621 259.425 110.288 256.91 109.227C254.425 108.136 251.516 107.166 248.183 106.318L237.592 103.591C229.925 101.621 223.865 98.6361 219.41 94.6361C214.986 90.6058 212.774 85.2573 212.774 78.5907C212.774 73.1058 214.259 68.3028 217.228 64.1816C220.228 60.0604 224.304 56.8634 229.456 54.5907C234.607 52.2876 240.44 51.1361 246.956 51.1361C253.562 51.1361 259.349 52.2876 264.319 54.5907C269.319 56.8634 273.243 60.0301 276.092 64.0907C278.94 68.121 280.41 72.7573 280.501 77.9998H264.274ZM355.49 52.4088H372.353V113.227C372.353 119.894 370.777 125.757 367.626 130.818C364.505 135.879 360.111 139.833 354.444 142.682C348.777 145.5 342.156 146.909 334.581 146.909C326.974 146.909 320.338 145.5 314.671 142.682C309.005 139.833 304.611 135.879 301.49 130.818C298.368 125.757 296.808 119.894 296.808 113.227V52.4088H313.671V111.818C313.671 115.697 314.52 119.151 316.217 122.182C317.944 125.212 320.368 127.591 323.49 129.318C326.611 131.015 330.308 131.863 334.581 131.863C338.853 131.863 342.55 131.015 345.671 129.318C348.823 127.591 351.247 125.212 352.944 122.182C354.641 119.151 355.49 115.697 355.49 111.818V52.4088ZM390.683 145.5V52.4088H407.546V95.1816H408.683L445.001 52.4088H465.592L429.592 94.1816L465.91 145.5H445.637L417.865 105.591L407.546 117.772V145.5H390.683ZM489.262 145.5H471.262L504.035 52.4088H524.853L557.671 145.5H539.671L514.808 71.4998H514.081L489.262 145.5ZM489.853 109H538.944V122.545H489.853V109ZM646.433 52.4088V145.5H631.433L587.569 82.0907H586.796V145.5H569.933V52.4088H585.024L628.842 115.863H629.66V52.4088H646.433Z" fill="white"/>
</svg>
